<?xml version="1.0" encoding="utf-8"?>
<!-- Generator: Adobe Illustrator 27.6.1, SVG Export Plug-In . SVG Version: 6.00 Build 0)  -->
<svg version="1.1" id="Layer_1" xmlns="http://www.w3.org/2000/svg" xmlns:xlink="http://www.w3.org/1999/xlink" x="0px" y="0px"
	 viewBox="0 0 80 80" style="enable-background:new 0 0 80 80;" xml:space="preserve">
<style type="text/css">
	.st0{fill:#4AC4D5;}
	.st1{fill:#9BDBE2;}
	.st2{fill:#FFFFFF;}
	.st3{fill:#0097A9;}
	.st4{fill:#00B4CA;}
</style>
<g>
	<g>
		<path class="st0" d="M31.9,23.4c0.7,1.1,2.1,1.6,3.4,1.7c2,0.3,4.1,0.1,6.1-0.4c1.6,1.7,3.7,2.7,6,2.8c2.3,0.1,4.6-0.7,6.3-2.3
			c1.1,1.1,2.7,1.6,4.3,1.5c1.6-0.1,3-1.1,4-2.3c0.9,0,1.8-0.2,2.6-0.6c0.8-0.4,1.4-1.2,1.6-2.1c0-0.2,0-0.4,0-0.6
			c-0.1-1.4-1.3-2.6-2.6-3.1c-1.5-0.5-3.2-0.2-4.8,0c1.1-1.7,2.2-3.4,2.6-5.3c0.4-2,0.1-4.2-1.4-5.6c-1.2-1-2.8-1.4-4.4-1.2
			c-2.1,0.2-4.2,1.2-5.7,2.7c-1.5,1.6-2.3,3.7-2.4,5.8c-0.3-0.6-1.1-1.1-1.8-0.9c-0.7,0.1-1.3,0.8-1.3,1.5c-1-1.4-2.2-2.8-3.8-3.4
			c-1.6-0.6-3.7-0.2-4.6,1.2c-0.6,0.9-0.7,2.1-0.5,3.2c0.3,1.1,0.9,2,1.6,2.9c-1.4-0.4-3-0.4-4.2,0.5c-0.3,0.2-0.6,0.5-0.8,0.8
			C31.5,21.3,31.4,22.5,31.9,23.4z"/>
		<path class="st1" d="M31.9,23.4c0.7,1.1,2.1,1.6,3.4,1.7c2,0.3,4.1,0.1,6.1-0.4c1.6,1.7,3.7,2.7,6,2.8c2.3,0.1,4.6-0.7,6.3-2.3
			c1.1,1.1,2.7,1.6,4.3,1.5c1.6-0.1,3-1.1,4-2.3c0.9,0,1.8-0.2,2.6-0.6c0.8-0.4,1.4-1.2,1.6-2.1c0-0.2,0-0.4,0-0.6
			c-0.2,0.5-0.5,1-0.9,1.3c-0.7,0.6-1.7,0.8-2.5,0.7c0.2-0.8,0.3-1.3,0.2-1.9c-0.4,1.8-1.7,3.3-3.5,3.8c-1.8,0.5-3.8,0-5.1-1.3
			c0.2-0.8,0.3-1.7,0.2-2.6c-1.2,2.6-3.8,4.3-6.6,4.4c-2.8,0.1-5.7-1.5-7.1-3.9c0.1,0.6,0.1,1,0.2,1.6c-2,0.7-4,0.9-6.1,0.6
			c-1.1-0.1-2.3-0.5-2.8-1.5c-0.4-0.7-0.4-1.5-0.1-2.3C31.5,21.3,31.4,22.5,31.9,23.4z"/>
		<g>
			<path class="st2" d="M52,8.4c-0.9,0.5-1.7,1.2-2.2,2.1c-0.1,0.1,0,0.3,0.1,0.4c0.1,0.1,0.3,0,0.4-0.1c0.5-0.8,1.2-1.5,2-1.9
				C52.6,8.7,52.3,8.2,52,8.4z"/>
			<path class="st2" d="M38.7,12.6c0-0.1-0.1-0.3-0.3-0.3c-1.1,0.1-2.1,1-2.3,2.2c0,0.2,0,0.3,0.2,0.3c0.1,0,0.3,0,0.3-0.2
				c0.1-0.5,0.3-0.9,0.6-1.2c0,0,0.1-0.1,0.1-0.1c0,0,0,0,0.1,0c0,0,0,0,0,0c0.1-0.1,0.2-0.1,0.3-0.2c0,0,0.1,0,0.1,0c0,0,0,0,0,0
				c0,0,0,0,0,0c0.1,0,0.1,0,0.2-0.1c0.1,0,0.1,0,0.2,0c0,0,0.1,0,0.1,0c0,0,0.1,0,0.1,0C38.6,12.9,38.7,12.8,38.7,12.6z"/>
			<path class="st2" d="M34.8,19.5c-0.7,0-1.4,0.3-1.9,0.8c-0.1,0.1-0.1,0.3,0,0.4c0.1,0.1,0.3,0.1,0.4,0c0.1-0.1,0.1-0.1,0.2-0.2
				c0,0,0,0,0,0c0,0,0,0,0,0c0,0,0,0,0,0c0,0,0,0,0,0c0.1,0,0.1-0.1,0.2-0.1c0,0,0.1,0,0.1,0c0,0,0,0,0,0c0,0,0,0,0,0c0,0,0,0,0,0
				c0.1-0.1,0.3-0.1,0.4-0.1c0,0,0,0,0.1,0c0,0,0,0,0,0c0,0,0.1,0,0.1,0c0.1,0,0.2,0,0.2,0c0.1,0,0.3-0.1,0.3-0.3
				C35.1,19.6,35,19.5,34.8,19.5z"/>
		</g>
	</g>
	<g>
		<path class="st3" d="M77.8,54.4c-1.8,1.6-5.2,2.5-7.4,1.5c-3,2.8-6,4.7-10.1,4.9c-4.1,0.1-8.6-1.4-11.7-4
			c-2.7,1.5-6.1,1.7-8.7,0.2c-1.5-0.9-2.6-2.5-3.1-4.1c-0.3-1.2-0.3-2.5,0.2-3.7c1.1-2.4,3.7-3.8,6.4-4c2.6-0.2,5.4,1.1,8,1.9
			c-1.3-2.3-2.4-4.7-2.8-7.3c-0.4-2.6-0.1-5.4,1.3-7.6c1.9-3,5.6-4.8,9.1-4.4c3.5,0.3,6.8,2.7,8.4,5.8c1.6,3.2,1.7,7,0.3,10.3
			c1.9-1.5,4.9-1.9,7.3-1.2c2,0.6,3.6,2.1,4.5,3.9c0.2,0.4,0.3,0.8,0.4,1.2C80.4,50.1,79.6,52.8,77.8,54.4z"/>
		<path class="st1" d="M77.8,54.4c-1.8,1.6-5.2,2.5-7.4,1.5c-3,2.8-6,4.7-10.1,4.9c-4.1,0.1-8.6-1.4-11.7-4
			c-2.7,1.5-6.1,1.7-8.7,0.2c-1.5-0.9-2.6-2.5-3.1-4.1c1,1.5,2.6,2.6,4.3,3.1c2.1,0.6,4.5,0.2,6.4-1.1C46.8,54,46.6,53,46.7,52
			c1.4,2.2,3.3,3.8,5.7,4.8c2.3,1,4.9,1.4,7.5,1.2c2.3-0.1,4.6-0.7,6.5-1.9c2-1.2,3.6-2.9,4.4-5.1c0.2,1.1,0.2,2.2,0,3.2
			c2.7,0.9,5.8,0,7.5-2.3c1.2-1.6,1.5-3.6,1.2-5.5c0.2,0.4,0.3,0.8,0.4,1.2C80.4,50.1,79.6,52.8,77.8,54.4z"/>
		<g>
			<path class="st2" d="M54.4,30.2c-2.5,1.5-4.1,4.4-3.9,7.4c0,0.4,0.3,0.8,0.8,0.8c0.4,0,0.8-0.4,0.8-0.8c-0.1-2.4,1.1-4.8,3.1-6
				C56,31.1,55.2,29.7,54.4,30.2z"/>
			<path class="st2" d="M43.7,47.4c0-0.4-0.4-0.8-0.8-0.8c-1.5,0.2-2.9,0.9-3.9,2c-0.3,0.3-0.3,0.8,0,1.1c0.3,0.3,0.8,0.3,1.1,0
				c0.2-0.2,0.4-0.4,0.7-0.6c0,0,0.1-0.1,0.1-0.1C41,49,41,49,41.1,49c0.1-0.1,0.3-0.2,0.4-0.2c0.1,0,0.1-0.1,0.2-0.1
				c0,0,0.1,0,0.1-0.1c0,0,0,0,0.1,0c0,0,0,0,0,0c0,0,0.1,0,0.1,0c0.1,0,0.1,0,0.2-0.1c0.2,0,0.3-0.1,0.5-0.1c0.1,0,0.1,0,0.2,0
				c0,0,0.1,0,0.1,0c0,0,0,0,0,0c0.2,0,0.4-0.1,0.5-0.2C43.6,47.9,43.7,47.6,43.7,47.4z"/>
			<path class="st2" d="M72.6,44c-1.5-0.1-3.1,0.3-4.3,1.2c-0.3,0.2-0.5,0.7-0.3,1.1c0.2,0.3,0.7,0.5,1.1,0.3
				c0.3-0.2,0.6-0.4,0.8-0.5c0.1,0,0.1-0.1,0.2-0.1c0,0,0.1-0.1,0.2-0.1c0.2-0.1,0.3-0.1,0.5-0.2c0.2,0,0.3-0.1,0.5-0.1
				c0.1,0,0.2,0,0.3,0c0,0,0,0,0,0c0,0,0.1,0,0.1,0c0.3,0,0.7,0,1,0c0.4,0,0.8-0.4,0.8-0.8C73.4,44.4,73.1,44.1,72.6,44z"/>
		</g>
	</g>
	<g>
		<path class="st4" d="M47,54.3c-2.8,1-6.7,1.6-9.7,1.3c-2.8,3.2-7.1,5.2-11.4,5.3c-4.3,0.1-8.6-1.5-11.6-4.6
			c-2.1,0.6-4.2,1.1-6.4,1c-2.2-0.1-4.4-0.8-6-2.2c-0.6-0.6-1.1-1.2-1.5-2c-0.6-1.2-0.8-2.6-0.5-3.9c0.5-1.9,2.1-3.4,3.9-4.3
			c3.4-1.7,7.5-1.7,10.7,0.3c-5.4-4-7.8-11.5-5.8-17.8c0.9-2.8,2.8-5.5,5.6-6.2c2.4-0.6,4.9,0.4,7,1.7c6.4,4,10.3,11.6,10,19.1
			c0-2.6,3.1-4.8,5.7-4.3c2.5,0.4,4.3,3.4,3.5,5.9c1.9-1.3,4.9-1.4,7.1-0.7c1.4,0.4,2.7,1.4,3.4,2.7c0.4,0.7,0.7,1.5,0.8,2.4
			C52.3,50.7,49.8,53.3,47,54.3z"/>
		<path class="st1" d="M47,54.3c-2.8,1-6.7,1.6-9.7,1.3c-2.8,3.2-7.1,5.2-11.4,5.3c-4.3,0.1-8.6-1.5-11.6-4.6
			c-2.1,0.6-4.2,1.1-6.4,1c-2.2-0.1-4.4-0.8-6-2.2c-0.6-0.6-1.1-1.2-1.5-2c1.4,1,3,1.6,4.7,1.9c2.4,0.4,5,0,7.2-1.2
			c-0.7-1.1-0.9-2.4-0.8-3.6c2.7,4.6,7.8,7.5,13.1,7.5c5.3,0,10.5-2.9,13.2-7.4c0.2,1.2-0.1,2.3-0.5,3.4c2.3,0,4.6,0.1,6.9-0.5
			c2.2-0.6,4.4-1.7,5.8-3.6c0.8-1.2,1.3-2.7,1.2-4.2c0.4,0.7,0.7,1.5,0.8,2.4C52.3,50.7,49.8,53.3,47,54.3z"/>
		<g>
			<path class="st2" d="M14,24.5c-0.3-0.3-0.8-0.3-1.1,0c-1.7,1.6-2.7,4-2.7,6.3c0,0.4,0.4,0.8,0.8,0.8c0.4,0,0.8-0.4,0.8-0.8
				c0-1.9,0.8-3.8,2.3-5.2C14.3,25.3,14.3,24.8,14,24.5z"/>
			<path class="st2" d="M36.8,39.6c-0.1-0.2-0.2-0.4-0.4-0.5c-0.2-0.1-0.4-0.1-0.6-0.1c-1.3,0.2-2.5,1.3-2.9,2.6
				c-0.1,0.4,0.1,0.9,0.6,1c0.4,0.1,0.8-0.1,1-0.6c0,0,0-0.1,0.1-0.1c0.1-0.2,0.2-0.3,0.3-0.5c0.1-0.1,0.3-0.3,0.4-0.4
				c0.2-0.1,0.3-0.2,0.5-0.3c0.2-0.1,0.3-0.1,0.5-0.2c0.2,0,0.4-0.2,0.5-0.4C36.8,40.1,36.8,39.8,36.8,39.6z"/>
			<path class="st2" d="M8.3,45.7c-2.2,0.2-4.3,1-6,2.4C2,48.4,2,49,2.3,49.3c0.3,0.3,0.8,0.3,1.1,0c1.4-1.1,3.2-1.8,4.9-2
				c0.4,0,0.8-0.3,0.8-0.8C9.1,46.1,8.8,45.7,8.3,45.7z"/>
		</g>
	</g>
	<g>
		<path class="st0" d="M75.3,64.2c-0.7,3-3.8,4.9-6.8,5.2c-3,0.3-6.2-0.7-9.1-1.7c-2.4,3.5-6.5,5.8-10.7,6.1
			c-4.2,0.3-8.4-1.8-11.2-5c-1.8,1.6-4.3,2.4-6.6,2.1c-2.4-0.3-4.7-1.4-6.1-3.4c-2.4,0.7-4.8,1.3-7.3,1.2c-2.5-0.1-5-0.9-6.7-2.6
			c-0.8-0.7-1.4-1.6-1.7-2.6c-0.5-1.3-0.6-2.8-0.2-4.1c0.8-2.6,3.4-4.3,6.1-4.8c2.7-0.5,5.4,0.1,8,0.7c-1-1.2-1.9-2.5-2.4-4
			c-0.5-1.5-0.5-3.2,0.4-4.5c0.9-1.3,2.6-1.9,4.2-1.7c1.6,0.2,3,1.1,4,2.3c-2.4-3.2-3.2-7.4-2.4-11.2c0.8-3.9,3.5-7.4,7.1-9
			c3.6-1.6,8.1-1.1,11.2,1.4c2.5,2,4,5.1,4.6,8.3c0.6,3.2,0.5,6.4,0.4,9.6c0.7-2.4,1.9-4.8,3.7-6.6c1.8-1.8,4.5-2.8,7-2
			c2.2,0.7,3.9,2.8,4.4,5c0.5,2.3-0.1,4.7-1.2,6.7c-1.1,2-2.4,4.5-4.2,6c2.3-0.3,4.7-0.5,7-0.3c2.3,0.2,4.7,1,6.4,2.6
			c1.3,1.2,2.2,2.8,2.3,4.5C75.5,63,75.4,63.6,75.3,64.2z"/>
		<path class="st1" d="M75.3,64.2c-0.7,3-3.8,4.9-6.8,5.2c-3,0.3-6.2-0.7-9.1-1.7c-2.4,3.5-6.5,5.8-10.7,6.1
			c-4.2,0.3-8.4-1.8-11.2-5c-1.8,1.6-4.3,2.4-6.6,2.1c-2.4-0.3-4.7-1.4-6.1-3.4c-2.4,0.7-4.8,1.3-7.3,1.2c-2.5-0.1-5-0.9-6.7-2.6
			c-0.8-0.7-1.4-1.6-1.7-2.6c1.3,1.3,3.2,2.2,5,2.5c3,0.5,6.1-0.2,9.1-1c-0.7-1.6-1-3.7-0.8-5.4c0.4,2.7,2.3,5.2,4.8,6.4
			c2.5,1.2,5.6,1.1,8-0.2c-1-1.3-1.3-3-1.2-4.6c1.9,5.3,7.4,9.1,13,9.4c5.6,0.2,11.2-3.2,13.6-8.3c0,0.9-0.1,1.8-0.1,2.7
			c3.2,1.1,6.5,1.8,9.8,1.5c1.8-0.2,3.7-0.6,4.7-2.1c0.4-0.6,0.6-1.3,0.7-2C75.5,63,75.4,63.6,75.3,64.2z"/>
		<g>
			<path class="st2" d="M34,31.2c-0.2-0.4-0.7-0.5-1.1-0.3c-1.8,0.9-3.2,2.6-3.7,4.6c-0.1,0.4,0.1,0.9,0.6,1c0.4,0.1,0.9-0.1,1-0.6
				c0.1-0.2,0.1-0.4,0.2-0.6c0,0,0,0,0,0c0,0,0,0,0,0c0,0,0-0.1,0.1-0.1c0-0.1,0.1-0.2,0.1-0.3c0.1-0.2,0.2-0.4,0.3-0.6
				c0.1-0.1,0.1-0.2,0.2-0.3c0,0,0.2-0.2,0,0c0,0,0.1-0.1,0.1-0.1c0.3-0.3,0.6-0.6,0.9-0.9c0,0,0,0,0,0c0,0,0.1-0.1,0.1-0.1
				c0.1-0.1,0.2-0.1,0.3-0.2c0.2-0.1,0.4-0.2,0.6-0.3C34,32.1,34.2,31.6,34,31.2z"/>
			<path class="st2" d="M30.2,40.8c0-0.1-0.1-0.3-0.1-0.4c0-0.3,0-0.6,0-0.8c0-0.2-0.1-0.4-0.2-0.6c-0.1-0.1-0.4-0.2-0.6-0.2
				c-0.2,0-0.4,0.1-0.6,0.2c0,0.1-0.1,0.1-0.1,0.2c-0.1,0.1-0.1,0.3-0.1,0.4c-0.1,0.5,0,1.1,0.1,1.6c0.1,0.2,0.2,0.4,0.4,0.5
				c0.2,0.1,0.4,0.1,0.6,0.1c0.2-0.1,0.4-0.2,0.5-0.4C30.2,41.3,30.3,41.1,30.2,40.8z"/>
			<path class="st2" d="M25.7,47.6c-0.1-0.2-0.3-0.3-0.5-0.4c-0.5-0.1-1.1-0.1-1.6,0.1c-0.5,0.2-0.9,0.5-1.3,0.9
				c-0.1,0.2-0.2,0.3-0.2,0.6c0,0.2,0.1,0.4,0.2,0.6c0.2,0.1,0.4,0.2,0.6,0.2c0.2,0,0.4-0.1,0.6-0.2c0.1-0.1,0.2-0.2,0.3-0.3
				c0.1-0.1,0.2-0.1,0.3-0.2c0.1,0,0.2-0.1,0.4-0.1c0.1,0,0.3,0,0.4,0c0,0,0,0,0,0c0.2,0,0.4,0,0.6-0.1c0.2-0.1,0.3-0.3,0.4-0.5
				C25.8,48,25.8,47.8,25.7,47.6z"/>
			<path class="st2" d="M17.8,55.9c-1.8,0-3.6,0.4-5.3,1.2c-0.4,0.2-0.5,0.7-0.3,1.1c0.2,0.4,0.7,0.5,1.1,0.3c1.4-0.7,2.9-1,4.5-1
				c0.4,0,0.8-0.4,0.8-0.8C18.6,56.3,18.3,55.9,17.8,55.9z"/>
		</g>
	</g>
</g>
</svg>
