<?xml version="1.0" encoding="utf-8"?>
<!-- Generator: Adobe Illustrator 27.6.1, SVG Export Plug-In . SVG Version: 6.00 Build 0)  -->
<svg version="1.1" id="Layer_1" xmlns="http://www.w3.org/2000/svg" xmlns:xlink="http://www.w3.org/1999/xlink" x="0px" y="0px"
	 viewBox="0 0 80 80" style="enable-background:new 0 0 80 80;" xml:space="preserve">
<style type="text/css">
	.st0{fill:#FF8D02;}
	.st1{fill:#FFDC45;}
</style>
<g>
	<path class="st0" d="M79.9,33.5l-7.2,6.8c-2.5,2.4-4.1,4.3-1.3,9.2l4.9,8.3L66.4,59c-3.6,0.5-6.4,1.2-6.7,6.8l-0.9,9.5l-8.5-4.9
		c-3.2-1.9-5.8-2.9-9.9,1.7l-6.3,7.5l-5.3-9.3c-2.2-4.3-3.2-5.5-8.7-3.5L11.7,69l1.9-9.4c1.4-5.8,0-7-4.4-8.2l-9.1-3.9l7.3-6.7
		c5.1-3.9,3.2-6.4,1.3-9.4l-5.1-8.1l9.9-1.2c6.3-0.1,6.5-3.3,6.8-6.9l0.8-9.5L30,10c3.1,1.5,6.8,0.9,9.1-1.6l6.4-8l5.1,9.8
		c1.6,3,5,4.5,8.4,3.8l9.3-2l-1.4,9.6c-1.2,5.2,0.3,6,4.2,7.8L79.9,33.5z"/>
	<g>
		<ellipse transform="matrix(0.9052 -0.4249 0.4249 0.9052 -13.2058 20.787)" class="st1" cx="40" cy="40" rx="24.9" ry="24.9"/>
	</g>
</g>
</svg>
