<?xml version="1.0" encoding="utf-8"?>
<!-- Generator: Adobe Illustrator 27.6.1, SVG Export Plug-In . SVG Version: 6.00 Build 0)  -->
<svg version="1.1" id="Layer_1" xmlns="http://www.w3.org/2000/svg" xmlns:xlink="http://www.w3.org/1999/xlink" x="0px" y="0px"
	 viewBox="0 0 80 80" style="enable-background:new 0 0 80 80;" xml:space="preserve">
<style type="text/css">
	.st0{fill:#FF8D02;}
	.st1{fill:#FFDC45;}
	.st2{fill:#00B4CA;}
	.st3{fill:#9BDBE2;}
	.st4{fill:#FFFFFF;}
</style>
<g>
	<g>
		<path class="st0" d="M80,28.4c-2.2,0.9-3.5,3.4-3.3,5.7c0.1,2.4,1.5,4.5,3.1,6.2c-2.2-0.5-4.5,1-5.6,2.9c-1.1,1.9-1.1,4.3-0.6,6.5
			c-1.9-0.1-3.9,0.1-5.6,0.7c-1.8,0.6-3.4,1.8-4.2,3.5c-1.3-1.5-3.4-2.4-5.4-2.3c-2,0-4,0.9-5.2,2.4C52.5,51.9,51,50,49,49
			c-2-1-4.3-1.3-6.5-0.7c1-2.7,1.1-5.8,0.2-8.5c-0.9-2.7-2.8-5.1-5.3-6.6c2.5-1.2,3.9-3.9,4.2-6.6c0.3-2.7-0.3-5.4-0.9-8.1
			c2.5,1.1,5.4,1.1,7.9,0c2.5-1.2,3.9-3.9,4.2-6.8c0.7,1.6,3,3.3,4.6,3.7c1.6,0.3,3.3,0,4.8-0.7c1.5-0.7,2.8-1.8,3.9-3
			c0.2,1.7,0.5,3.5,1.7,4.7c0.8,0.8,1.9,1.2,3,1.3c1.1,0.1,2.2,0,3.3-0.1c-1.2,1.9-1.1,4.6-0.1,6.6C75.1,26.3,77.7,28.1,80,28.4z"/>
		<circle class="st1" cx="58.7" cy="34.2" r="15.5"/>
	</g>
	<g>
		<path class="st2" d="M74.2,57.6c-0.8,3.3-4.2,5.4-7.6,5.8c-3.4,0.3-6.9-0.8-10.1-1.9c-2.7,3.9-7.2,6.5-11.9,6.8
			c-4.7,0.3-9.3-2-12.5-5.6c-2,1.8-4.7,2.7-7.4,2.4c-2.6-0.3-5.3-1.6-6.8-3.7c-2.6,0.8-5.3,1.4-8.1,1.3c-2.7-0.1-5.5-1-7.5-2.9
			C1.6,59,1,58,0.5,56.9c-0.6-1.5-0.7-3.1-0.2-4.6C1.2,49.5,4.1,47.6,7,47c3-0.5,6,0.1,8.9,0.8c-1.1-1.3-2.1-2.7-2.6-4.4
			c-0.6-1.6-0.5-3.6,0.5-5c1-1.4,2.9-2.1,4.6-1.9c1.7,0.2,3.3,1.2,4.5,2.5c-2.7-3.5-3.5-8.2-2.7-12.5c0.9-4.3,3.9-8.2,7.9-9.9
			c4-1.7,9-1.2,12.5,1.5c2.8,2.2,4.4,5.7,5.1,9.2c0.7,3.5,0.6,7.1,0.5,10.7c0.8-2.7,2.1-5.4,4.1-7.3c2-2,5-3.1,7.7-2.3
			c2.5,0.8,4.3,3.1,4.8,5.6c0.5,2.5-0.1,5.2-1.3,7.5c-1.3,2.3-2.7,5-4.7,6.6c2.6-0.3,5.2-0.6,7.8-0.3c2.6,0.3,5.2,1.1,7.1,2.9
			c1.4,1.3,2.4,3.1,2.6,5C74.4,56.3,74.4,57,74.2,57.6z"/>
		<path class="st3" d="M74.2,57.6c-0.8,3.3-4.2,5.4-7.6,5.8c-3.4,0.3-6.9-0.8-10.1-1.9c-2.7,3.9-7.2,6.5-11.9,6.8
			c-4.7,0.3-9.3-2-12.5-5.6c-2,1.8-4.7,2.7-7.4,2.4c-2.6-0.3-5.3-1.6-6.8-3.7c-2.6,0.8-5.3,1.4-8.1,1.3c-2.7-0.1-5.5-1-7.5-2.9
			C1.6,59,1,58,0.5,56.9C2,58.4,4,59.4,6.1,59.7c3.4,0.5,6.8-0.3,10.1-1.1c-0.8-1.8-1.1-4.1-0.9-6c0.5,3,2.6,5.8,5.3,7.1
			c2.8,1.3,6.2,1.2,8.8-0.2c-1.1-1.4-1.4-3.3-1.3-5.1c2.1,5.9,8.2,10.2,14.4,10.4c6.2,0.3,12.5-3.5,15.1-9.2c0,1-0.1,2-0.1,3
			c3.5,1.2,7.2,2,10.9,1.7c2-0.2,4.1-0.7,5.3-2.3c0.5-0.7,0.7-1.4,0.7-2.2C74.4,56.3,74.4,57,74.2,57.6z"/>
		<g>
			<path class="st4" d="M28.3,21c-0.3-0.4-0.8-0.5-1.2-0.3c-2,1-3.5,2.9-4.2,5.1c-0.1,0.4,0.2,1,0.6,1.1c0.5,0.1,1-0.1,1.1-0.6
				c0.1-0.2,0.2-0.5,0.2-0.7c0,0,0,0,0,0c0,0,0,0,0,0c0-0.1,0-0.1,0.1-0.2c0-0.1,0.1-0.2,0.2-0.3c0.1-0.2,0.2-0.4,0.4-0.7
				c0.1-0.1,0.1-0.2,0.2-0.3c0,0,0.2-0.2,0,0c0,0,0.1-0.1,0.1-0.1c0.3-0.4,0.7-0.7,1-1c0,0,0,0,0.1,0c0,0,0.1-0.1,0.1-0.1
				c0.1-0.1,0.2-0.1,0.3-0.2c0.2-0.1,0.4-0.3,0.7-0.4C28.4,22,28.6,21.4,28.3,21z"/>
			<path class="st4" d="M24.2,31.7c0-0.1-0.1-0.3-0.1-0.4c0-0.3,0-0.6,0-0.9c0-0.2-0.1-0.5-0.3-0.6c-0.2-0.2-0.4-0.3-0.6-0.3
				c-0.2,0-0.5,0.1-0.6,0.3c0,0.1-0.1,0.1-0.1,0.2c-0.1,0.1-0.1,0.3-0.1,0.4c-0.1,0.6,0,1.2,0.1,1.8c0.1,0.2,0.2,0.4,0.4,0.5
				c0.2,0.1,0.5,0.2,0.7,0.1c0.2-0.1,0.4-0.2,0.5-0.4C24.2,32.2,24.2,32,24.2,31.7z"/>
			<path class="st4" d="M19.2,39.2c-0.1-0.2-0.3-0.4-0.5-0.4c-0.6-0.1-1.2-0.1-1.7,0.1c-0.5,0.2-1.1,0.5-1.4,1
				c-0.2,0.2-0.3,0.4-0.3,0.6c0,0.2,0.1,0.5,0.3,0.6c0.2,0.2,0.4,0.3,0.6,0.3c0.2,0,0.5-0.1,0.6-0.3c0.1-0.1,0.2-0.2,0.3-0.3
				c0.1-0.1,0.2-0.1,0.3-0.2c0.1,0,0.3-0.1,0.4-0.1c0.2,0,0.3,0,0.5,0c0,0,0,0,0,0c0.2,0,0.4,0,0.6-0.1c0.2-0.1,0.4-0.3,0.4-0.5
				C19.3,39.7,19.3,39.4,19.2,39.2z"/>
			<path class="st4" d="M10.4,48.5c-2,0-4.1,0.4-5.9,1.3C4.1,50,4,50.6,4.2,51c0.3,0.4,0.8,0.5,1.2,0.3c1.5-0.7,3.3-1.1,5-1.1
				c0.5,0,0.9-0.4,0.9-0.9C11.3,48.9,10.9,48.5,10.4,48.5z"/>
		</g>
	</g>
</g>
</svg>
