<?xml version="1.0" encoding="utf-8"?>
<!-- Generator: Adobe Illustrator 27.6.1, SVG Export Plug-In . SVG Version: 6.00 Build 0)  -->
<svg version="1.1" id="Layer_1" xmlns="http://www.w3.org/2000/svg" xmlns:xlink="http://www.w3.org/1999/xlink" x="0px" y="0px"
	 viewBox="0 0 80 80" style="enable-background:new 0 0 80 80;" xml:space="preserve">
<style type="text/css">
	.st0{fill:#FF8D02;}
	.st1{fill:#FFDC45;}
	.st2{fill:#0097A9;}
	.st3{fill:#9BDBE2;}
	.st4{fill:#FFFFFF;}
</style>
<g>
	<g>
		<path class="st0" d="M71.2,19.7l-4.2,4c-1.5,1.4-2.4,2.5-0.8,5.3l2.8,4.8l-5.8,0.8c-2.1,0.3-3.7,0.7-3.9,4l-0.5,5.6l-5-2.8
			c-1.9-1.1-3.4-1.7-5.7,1l-3.7,4.4l-3.1-5.4c-1.3-2.5-1.8-3.2-5.1-2.1l-4.9,1.3l1.1-5.5c0.8-3.4,0-4.1-2.6-4.8l-5.3-2.3l4.3-3.9
			c3-2.3,1.9-3.7,0.8-5.5l-3-4.7l5.8-0.7c3.7-0.1,3.8-1.9,4-4L37,3.4L42.1,6c1.8,0.9,4,0.5,5.3-0.9l3.7-4.7l3,5.7
			c0.9,1.7,2.9,2.6,4.9,2.2l5.4-1.1l-0.8,5.6c-0.7,3,0.2,3.5,2.5,4.5L71.2,19.7z"/>
		<g>
			<circle class="st1" cx="47.9" cy="23.5" r="14.5"/>
		</g>
	</g>
	<g>
		<path class="st2" d="M77.8,51.6c-1.5,2.5-4.7,3.5-7.6,3.9c-4.5,0.6-9.2,0.3-13.6-0.9c-3.5,3.7-8.2,6.1-13.3,6.3
			c-5.1,0.2-10.3-1.7-14.1-5.1c-2.5,2.4-6,3.6-9.6,3.4c-3.5-0.1-6.6-2.5-8.9-5.1c-2-0.1-4-0.4-5.8-1.4c-1.7-1-3.1-2.7-3.5-4.6
			c-0.1-0.4-0.1-0.8-0.1-1.2C1.6,43.7,4.2,41,7.3,40c3.4-1.1,7.1-0.5,10.7,0c-2.4-3.8-4.9-7.5-5.9-11.9c-1-4.4-0.2-9.5,3.2-12.5
			c2.6-2.3,6.3-3.1,9.7-2.8c4.8,0.4,9.4,2.6,12.6,6.1c3.3,3.5,5.2,8.2,5.3,13c0.6-1.4,2.5-2.4,4.1-2.1c1.6,0.3,2.8,1.7,2.9,3.3
			c2.2-3.2,5-6.2,8.6-7.5c3.6-1.3,8.2-0.5,10.4,2.7c1.4,2,1.7,4.7,1,7.1c-0.6,2.4-2,4.5-3.6,6.4c3.2-0.9,6.7-1,9.3,1
			c0.7,0.5,1.2,1.1,1.7,1.8C78.7,46.7,79.1,49.5,77.8,51.6z"/>
		<path class="st3" d="M77.8,51.6c-1.5,2.5-4.7,3.5-7.6,3.9c-4.5,0.6-9.2,0.3-13.6-0.9c-3.5,3.7-8.2,6.1-13.3,6.3
			c-5.1,0.2-10.3-1.7-14.1-5.1c-2.5,2.4-6,3.6-9.6,3.4c-3.5-0.1-6.6-2.5-8.9-5.1c-2-0.1-4-0.4-5.8-1.4c-1.7-1-3.1-2.7-3.5-4.6
			c-0.1-0.4-0.1-0.8-0.1-1.2c0.4,1.1,1.1,2.1,2,2.9C4.9,51,7.1,51.6,9,51.2c-0.5-1.9-0.6-2.9-0.5-4.1c1,3.9,3.9,7.3,7.8,8.4
			c3.9,1.1,8.4,0,11.3-2.8c-0.4-1.8-0.6-3.9-0.4-5.7c2.7,5.7,8.5,9.6,14.8,9.9c6.3,0.2,12.6-3.3,15.8-8.8c-0.1,1.3-0.3,2.3-0.4,3.6
			c4.4,1.5,8.9,1.9,13.5,1.3c2.4-0.3,5.1-1.1,6.3-3.3c0.9-1.5,0.8-3.4,0.2-5.1C78.7,46.7,79.1,49.5,77.8,51.6z"/>
		<g>
			<path class="st4" d="M23.8,14.8c-3.4,0.1-6.6,1.9-8.5,4.7c-0.6,0.9,0.9,1.7,1.4,0.8c1.5-2.4,4.2-3.9,7.1-3.9
				C24.9,16.5,24.9,14.8,23.8,14.8z"/>
			<path class="st4" d="M15.6,26c-0.1-0.2-0.1-0.5-0.2-0.7c0-0.3,0-0.6,0-0.9c0-0.1,0-0.3,0.1-0.4c0.1-0.4-0.1-0.9-0.6-1
				c-0.4-0.1-0.9,0.1-1,0.6c-0.3,0.9-0.2,2,0.1,2.9c0.1,0.2,0.2,0.4,0.4,0.5c0.2,0.1,0.4,0.1,0.6,0.1C15.4,26.9,15.8,26.5,15.6,26z"
				/>
			<path class="st4" d="M13.2,40.6c-1.7-0.1-3.4,0.2-5.1,0.7c-0.4,0.1-0.6,0.7-0.4,1.1c0.2,0.4,0.6,0.6,1.1,0.4
				c0.1,0,0.2-0.1,0.3-0.1c0,0,0.1,0,0.1,0c0.2,0,0.4-0.1,0.6-0.1c0.4-0.1,0.7-0.1,1.1-0.2c0.4,0,0.7-0.1,1.1-0.1c0.2,0,0.4,0,0.6,0
				c0,0,0,0,0.1,0c0,0,0,0,0,0c0.1,0,0.2,0,0.3,0c0.4,0,0.9-0.2,0.9-0.7C13.9,41.2,13.7,40.7,13.2,40.6z"/>
			<path class="st4" d="M62,27.6c-2.7,0.1-5.4,1.3-7.1,3.5c-0.3,0.3-0.3,0.8,0,1.2c0.3,0.3,0.9,0.4,1.2,0c1.5-1.8,3.7-2.9,6-3
				C63.1,29.2,63.1,27.5,62,27.6z"/>
		</g>
	</g>
	<g>
		<g>
			<path class="st2" d="M19.4,79.2c-0.5-0.4-0.7-0.9-0.7-1.4c0.1-2.5,6.1-5.6,6.1-5.6s-0.1,0.4-0.3,1C23.8,75.6,21.8,81.3,19.4,79.2
				z"/>
			<path class="st3" d="M19.4,79.2c-0.5-0.4-0.7-0.9-0.7-1.4c0.1,0.3,0.3,0.5,0.5,0.6c0.5,0.3,1.1,0.2,1.6,0
				c0.5-0.2,0.9-0.6,1.2-1.1c1-1.2,1.8-2.7,2.5-4.2C23.8,75.6,21.8,81.3,19.4,79.2z"/>
		</g>
		<g>
			<path class="st2" d="M19.5,68.5c-0.4-0.3-0.6-0.7-0.5-1.1c0.1-2.1,5-4.6,5-4.6s-0.1,0.3-0.2,0.8C23.1,65.5,21.5,70.2,19.5,68.5z"
				/>
			<path class="st3" d="M19.5,68.5c-0.4-0.3-0.6-0.7-0.5-1.1c0.1,0.2,0.2,0.4,0.4,0.5c0.4,0.2,0.9,0.2,1.3,0c0.4-0.2,0.7-0.5,1-0.9
				c0.9-1,1.5-2.2,2-3.4C23.1,65.5,21.5,70.2,19.5,68.5z"/>
		</g>
		<g>
			<path class="st2" d="M41.6,73.4c-0.3-0.3-0.5-0.6-0.4-0.9c0.1-1.6,4-3.7,4-3.7s-0.1,0.2-0.2,0.6C44.5,71,43.2,74.7,41.6,73.4z"/>
			<path class="st3" d="M41.6,73.4c-0.3-0.3-0.5-0.6-0.4-0.9c0.1,0.2,0.2,0.3,0.3,0.4c0.3,0.2,0.7,0.1,1,0c0.3-0.2,0.6-0.4,0.8-0.7
				c0.7-0.8,1.2-1.8,1.6-2.7C44.5,71,43.2,74.7,41.6,73.4z"/>
		</g>
		<g>
			<path class="st2" d="M51.2,68.4c-0.5-0.4-0.7-0.8-0.6-1.3c0.1-2.4,5.7-5.3,5.7-5.3s-0.1,0.4-0.2,0.9C55.3,65,53.5,70.3,51.2,68.4
				z"/>
			<path class="st3" d="M51.2,68.4c-0.5-0.4-0.7-0.8-0.6-1.3c0.1,0.3,0.3,0.5,0.5,0.6c0.4,0.3,1,0.2,1.5,0c0.5-0.2,0.8-0.6,1.1-1
				c1-1.2,1.7-2.5,2.3-3.9C55.3,65,53.5,70.3,51.2,68.4z"/>
		</g>
		<g>
			<path class="st2" d="M55.5,75.8c-0.3-0.3-0.5-0.6-0.4-0.9c0.1-1.6,4-3.7,4-3.7s-0.1,0.2-0.2,0.6C58.4,73.4,57.1,77.1,55.5,75.8z"
				/>
			<path class="st3" d="M55.5,75.8c-0.3-0.3-0.5-0.6-0.4-0.9c0.1,0.2,0.2,0.3,0.3,0.4c0.3,0.2,0.7,0.1,1,0c0.3-0.2,0.6-0.4,0.8-0.7
				c0.7-0.8,1.2-1.8,1.6-2.7C58.4,73.4,57.1,77.1,55.5,75.8z"/>
		</g>
	</g>
</g>
</svg>
