<?xml version="1.0" encoding="utf-8"?>
<!-- Generator: Adobe Illustrator 27.6.1, SVG Export Plug-In . SVG Version: 6.00 Build 0)  -->
<svg version="1.1" id="Layer_1" xmlns="http://www.w3.org/2000/svg" xmlns:xlink="http://www.w3.org/1999/xlink" x="0px" y="0px"
	 viewBox="0 0 80 80" style="enable-background:new 0 0 80 80;" xml:space="preserve">
<style type="text/css">
	.st0{fill:#0097A9;}
	.st1{fill:#9BDBE2;}
	.st2{fill:#00B4CA;}
	.st3{fill:#FFFFFF;}
</style>
<g>
	<g>
		<g>
			<path class="st0" d="M60.5,40.5c-1.3,2.6-3.6,4.5-6.2,5.8c-1.4,0.7-2.9,1.2-4.5,1.5c-4.4,0.8-8.9,0.3-13.3-0.2
				c-2.6,2.3-6,3.3-9.4,3.6c-3.4,0.3-7.5-1.5-10.4-3.3c-3.8,2.8-9.3,2.8-13.1,0.1c0,0-0.1-0.1-0.1-0.1c-1.8-1.3-3.2-3.2-3.5-5.5
				c0-0.1,0-0.2,0-0.3c-0.2-2.7,1.4-5.3,3.5-7c2.2-1.7,5-2.6,7.8-3.2c-2.6-1-3.8-4.9-2.7-7.4c1.1-2.6,4.4-3.9,7-2.8
				c2.1,0.9,3.5,3.1,3.5,5.4c0.6-3.3,1.7-6.4,3.5-9.3c2-3.4,5.1-6.2,8.9-7.2c3.1-0.9,6.4-0.5,9.3,0.9c1.9,0.9,3.6,2.4,4.8,4.1
				c0.2,0.3,0.4,0.6,0.5,0.9c2.4,4.3,2.1,10.1-0.9,14.1c1.8-1.6,4.4-2.6,6.9-2.8c2-0.2,3.9,0.1,5.6,1C61.5,30.9,62.5,36.5,60.5,40.5
				z"/>
		</g>
		<path class="st1" d="M60.5,40.5c-1.3,2.6-3.6,4.5-6.2,5.8c-1.4,0.7-2.9,1.2-4.5,1.5c-4.4,0.8-8.9,0.3-13.3-0.2
			c-2.6,2.3-6,3.3-9.4,3.6c-3.4,0.3-7.5-1.5-10.4-3.3c-3.8,2.8-9.3,2.8-13.1,0.1c0,0-0.1-0.1-0.1-0.1c-1.8-1.3-3.2-3.2-3.5-5.5
			c0-0.1,0-0.2,0-0.3c0.3,1.1,1.1,2.1,2,2.7c1.7,1.2,3.8,1.4,5.9,1.2c2-0.2,4-0.7,6-1c2-0.3,4.2-0.3,6,0.6c-1.5-2.1-1.6-5.4-0.6-7.8
			c1-2.4,3.3-4.2,5.9-4.6c2.6-0.4,5.3,0.6,7,2.6c0.3-5.3,2.9-10.4,6.7-14c0.9-0.9,2-1.7,2.8-2.6c0.8-1,1.5-2.2,1.5-3.5
			c0-1.7-1-3.2-2.4-4.2c-0.1-0.1-0.2-0.1-0.2-0.2c1.9,0.9,3.6,2.4,4.8,4.1c0.2,0.3,0.4,0.6,0.5,0.9c2.4,4.3,2.1,10.1-0.9,14.1
			c1.8-1.6,4.4-2.6,6.9-2.8c2-0.2,3.9,0.1,5.6,1C61.5,30.9,62.5,36.5,60.5,40.5z"/>
	</g>
	<g>
		<path class="st2" d="M79.9,53c-0.2,1.2-0.6,2.4-1.3,3.5c-2,3.4-5.8,5.6-9.7,6.3C65,63.5,60.6,64,56.7,63c-3.5,4.3-9,6.9-14.5,7
			c-5.5,0.1-11.1-2.3-14.8-6.5c-4.9,1.4-10.1,1.9-15.2,1.5c-3.5-0.3-7.3-1.2-9.3-4.2c-0.7-1.1-1.1-2.4-1.1-3.7
			c-0.1-2.3,0.8-4.7,2.4-6.4c2.5-2.7,6.2-3.8,9.9-3.9c3.6-0.1,7.2,0.4,10.7,1.3c-1.9-1.6-3.4-3.6-3.9-6c-0.5-2.4,0.4-5.2,2.6-6.4
			c2.1-1.2,4.9-0.6,6.7,0.9c1.9,1.5,3,3.8,3.7,6.1c-0.5-4.7,0.6-9.8,2.5-14.1c1.9-4.3,5.3-8.1,9.6-9.9c4.4-1.8,9.7-1.4,13.4,1.4
			c3.7,2.8,5.5,7.5,5.3,12.1c-0.2,4.6-2.3,9-5.1,12.5c2.9-1.4,6-2.2,9.2-2.5c3.2-0.3,6.7,0.5,8.9,2.9C79.7,47.4,80.3,50.3,79.9,53z"
			/>
		<path class="st1" d="M79.9,53c-0.2,1.2-0.6,2.4-1.3,3.5c-2,3.4-5.8,5.6-9.7,6.3C65,63.5,60.6,64,56.7,63c-3.5,4.3-9,6.9-14.5,7
			c-5.5,0.1-11.1-2.3-14.8-6.5c-4.9,1.4-10.1,1.9-15.2,1.5c-3.5-0.3-7.3-1.2-9.3-4.2c-0.7-1.1-1.1-2.4-1.1-3.7
			c2.2,3.2,6.1,5.2,10,5.8c4.6,0.7,9.3-0.3,13.9-1.3c-1.3-1.5-1.8-3.9-1.7-5.9c3.4,6,10.2,9.9,17.1,9.8c6.9,0,13.7-4,17.1-10.1
			c-0.2,1.8-0.7,3.5-1.4,5.1c4.9,0.3,9.9,0.7,14.5-0.8C74.9,58.7,78.2,56.2,79.9,53z"/>
		<g>
			<path class="st3" d="M48.3,22.4c-0.3-0.5-0.9-0.6-1.4-0.4c-4.2,2.1-7.3,6.1-8.2,10.7c-0.1,0.5,0.2,1.1,0.7,1.3
				c0.5,0.1,1.1-0.2,1.3-0.7c0.8-4.1,3.5-7.6,7.3-9.5C48.4,23.6,48.6,22.9,48.3,22.4z"/>
			<path class="st3" d="M24.9,40.5c0.1-0.2,0.2-0.3,0.3-0.5c0,0-0.1,0.1-0.1,0.1c0.2-0.2,0.3-0.4,0.3-0.7c0-0.2-0.1-0.5-0.3-0.7
				c-0.2-0.2-0.4-0.3-0.7-0.3c-0.3,0-0.6,0.1-0.7,0.3c-0.5,0.6-0.8,1.2-0.9,2c0,0.3-0.1,0.6,0,0.9c0,0.2,0.1,0.4,0.1,0.6
				c0.1,0.2,0.1,0.4,0.2,0.6c0.1,0.2,0.4,0.4,0.6,0.5c0.2,0.1,0.6,0,0.8-0.1c0.2-0.1,0.4-0.3,0.5-0.6l0-0.3c0-0.1,0-0.2-0.1-0.3
				c0,0,0,0,0,0c-0.1-0.2-0.1-0.4-0.1-0.5c0-0.2,0-0.3,0-0.5C24.8,40.8,24.9,40.7,24.9,40.5z"/>
			<path class="st3" d="M15.4,49.2c-3-0.3-6.1,0.5-8.7,2.1c-0.5,0.3-0.7,0.9-0.4,1.4c0.3,0.5,0.9,0.7,1.4,0.4
				c2.3-1.5,4.9-2.1,7.6-1.8c0.5,0.1,1-0.5,1-1C16.4,49.6,16,49.3,15.4,49.2z"/>
		</g>
	</g>
</g>
</svg>
