<?xml version="1.0" encoding="utf-8"?>
<!-- Generator: Adobe Illustrator 27.6.1, SVG Export Plug-In . SVG Version: 6.00 Build 0)  -->
<svg version="1.1" id="Layer_1" xmlns="http://www.w3.org/2000/svg" xmlns:xlink="http://www.w3.org/1999/xlink" x="0px" y="0px"
	 viewBox="0 0 80 80" style="enable-background:new 0 0 80 80;" xml:space="preserve">
<style type="text/css">
	.st0{fill:#4AC4D5;}
	.st1{fill:#00B4CA;}
	.st2{fill:#0097A9;}
</style>
<g>
	<path class="st0" d="M64.3,31.2c-0.8-0.3-1.5-0.5-2.3-0.9c-0.3-0.1-0.7-0.3-1-0.4c-0.1,0-0.2-0.1-0.3-0.1l3.7-2.3
		c0.9-0.6,0-2-0.9-1.4L60,28.3c0-0.2,0.1-0.5,0.1-0.7c0.1-0.8,0.3-1.7,0.4-2.5c0.2-1-1.4-1.4-1.6-0.4l-0.5,2.9
		c-0.1,0.6-0.3,1.2-0.2,1.8l-3.1,2c0-0.2,0.1-0.5,0.1-0.7c0.1-0.8,0.3-1.7,0.4-2.5c0.2-1-1.4-1.4-1.6-0.4l-0.5,2.9
		c-0.1,0.6-0.3,1.2-0.2,1.8L41,40.2l-2.5-1.7V24.3c0.2-0.1,0.5-0.3,0.7-0.4c0.4-0.3,0.8-0.5,1.2-0.8c0.8-0.6,1.6-1.2,2.4-1.8
		c0.3-0.3,0.3-0.9,0-1.2c-0.3-0.3-0.8-0.3-1.2,0c-0.6,0.5-1.3,1-1.9,1.5c-0.3,0.2-0.6,0.4-0.9,0.6c-0.1,0.1-0.2,0.1-0.2,0.2v-3.8
		c0.2-0.1,0.5-0.3,0.7-0.4c0.4-0.3,0.8-0.5,1.2-0.8c0.8-0.6,1.6-1.2,2.4-1.8c0.3-0.3,0.3-0.9,0-1.2c-0.3-0.3-0.8-0.3-1.2,0
		c-0.6,0.5-1.3,1-1.9,1.5c-0.3,0.2-0.6,0.4-0.9,0.6c-0.1,0.1-0.2,0.1-0.2,0.2v-4.3c0-1.1-1.7-1.1-1.7,0v4.2
		c-0.2-0.2-0.4-0.3-0.5-0.5c-0.6-0.6-1.3-1.1-1.9-1.7c-0.8-0.7-2,0.5-1.2,1.2l2.2,2c0.4,0.4,0.9,0.9,1.4,1.1v3.7
		c-0.2-0.2-0.4-0.3-0.5-0.5c-0.6-0.6-1.3-1.1-1.9-1.7c-0.8-0.7-2,0.5-1.2,1.2l2.2,2c0.4,0.4,0.9,0.9,1.4,1.1v14.1L34,40.2l-12-8.7
		c0-0.3,0.1-0.6,0.1-0.8c0-0.5,0-0.9,0-1.4c0-1,0-2-0.1-3c0-0.4-0.5-0.8-0.9-0.7c-0.5,0.1-0.7,0.5-0.7,0.9c0,0.8,0.1,1.6,0.1,2.4
		c0,0.4,0,0.7,0,1.1c0,0.1,0,0.2,0,0.3l-3.1-2.3c0-0.3,0.1-0.6,0.1-0.8c0-0.5,0-0.9,0-1.4c0-1,0-2-0.1-3c0-0.4-0.5-0.8-0.9-0.7
		c-0.5,0.1-0.7,0.5-0.7,0.9c0,0.8,0.1,1.6,0.1,2.4c0,0.4,0,0.7,0,1.1c0,0.1,0,0.2,0,0.3l-2.6-1.9c-0.9-0.6-1.8,0.7-1,1.3l2.4,1.8
		c-0.2,0-0.4,0.1-0.6,0.1c-0.8,0.2-1.7,0.4-2.5,0.6c-1,0.2-0.8,1.9,0.3,1.6l2.9-0.7c0.5-0.1,1.2-0.2,1.7-0.5l3,2.2
		c-0.2,0-0.4,0.1-0.6,0.1c-0.8,0.2-1.7,0.4-2.5,0.6c-1,0.2-0.8,1.9,0.3,1.6l2.9-0.7c0.5-0.1,1.2-0.2,1.7-0.5l11.6,8.4v4.3l-12.2,7.7
		c-0.2-0.1-0.5-0.3-0.7-0.4c-0.4-0.2-0.8-0.4-1.3-0.6c-0.9-0.4-1.9-0.7-2.8-1.1c-0.4-0.1-0.9,0.2-1,0.6c-0.1,0.5,0.2,0.8,0.6,1
		c0.8,0.3,1.5,0.5,2.3,0.9c0.3,0.1,0.7,0.3,1,0.4c0.1,0,0.2,0.1,0.3,0.1l-3.3,2c-0.2-0.1-0.5-0.3-0.7-0.4c-0.4-0.2-0.8-0.4-1.3-0.6
		c-0.9-0.4-1.9-0.7-2.8-1.1c-0.4-0.1-0.9,0.2-1,0.6c-0.1,0.5,0.2,0.8,0.6,1c0.8,0.3,1.5,0.5,2.3,0.9c0.3,0.1,0.7,0.3,1,0.4
		c0.1,0,0.2,0.1,0.3,0.1L11.2,59c-0.9,0.6,0,2,0.9,1.4l2.6-1.6c0,0.2-0.1,0.4-0.1,0.6c-0.1,0.8-0.3,1.7-0.4,2.5
		c-0.2,1,1.4,1.4,1.6,0.4l0.5-2.9c0.1-0.6,0.2-1.2,0.2-1.7l3.1-2c0,0.2-0.1,0.4-0.1,0.6c-0.1,0.8-0.3,1.7-0.4,2.5
		c-0.2,1,1.4,1.4,1.6,0.4l0.5-2.9c0.1-0.6,0.2-1.2,0.2-1.7l12.2-7.7l3.4,1.9v14.4c-0.2,0.1-0.5,0.3-0.7,0.4
		c-0.4,0.3-0.8,0.5-1.2,0.8c-0.8,0.6-1.6,1.2-2.4,1.8c-0.3,0.3-0.3,0.9,0,1.2c0.3,0.3,0.8,0.3,1.2,0c0.6-0.5,1.3-1,1.9-1.5
		c0.3-0.2,0.6-0.4,0.9-0.6c0.1-0.1,0.2-0.1,0.3-0.2V69c-0.2,0.1-0.5,0.3-0.7,0.4c-0.4,0.3-0.8,0.5-1.2,0.8c-0.8,0.6-1.6,1.2-2.4,1.8
		c-0.3,0.3-0.3,0.9,0,1.2c0.3,0.3,0.8,0.3,1.2,0c0.6-0.5,1.3-1,1.9-1.5c0.3-0.2,0.6-0.4,0.9-0.6c0.1-0.1,0.2-0.1,0.3-0.2v3.2
		c0,1.1,1.7,1.1,1.7,0v-3c0.2,0.1,0.3,0.3,0.5,0.4c0.6,0.6,1.3,1.1,1.9,1.7c0.8,0.7,2-0.5,1.2-1.2l-2.2-2c-0.4-0.4-0.9-0.8-1.4-1.1
		v-3.7c0.2,0.1,0.3,0.3,0.5,0.4c0.6,0.6,1.3,1.1,1.9,1.7c0.8,0.7,2-0.5,1.2-1.2l-2.2-2c-0.4-0.4-0.9-0.8-1.4-1.1V48.5l2.6-1.1
		l11.4,8.2c0,0.3,0,0.5-0.1,0.8c0,0.5,0,0.9,0,1.4c0,1,0,2,0.1,3c0,0.4,0.5,0.8,0.9,0.7c0.5-0.1,0.7-0.5,0.7-0.9
		c0-0.8-0.1-1.6-0.1-2.4c0-0.4,0-0.7,0-1.1c0-0.1,0-0.2,0-0.3l3.1,2.2c0,0.3,0,0.5-0.1,0.8c0,0.5,0,0.9,0,1.4c0,1,0,2,0.1,3
		c0,0.4,0.5,0.8,0.9,0.7c0.5-0.1,0.7-0.5,0.7-0.9c0-0.8-0.1-1.6-0.1-2.4c0-0.4,0-0.7,0-1.1c0-0.1,0-0.2,0-0.3l3.5,2.5
		c0.9,0.6,1.8-0.7,1-1.3l-3.4-2.5c0.2-0.1,0.5-0.1,0.7-0.2c0.8-0.2,1.7-0.4,2.5-0.6c1-0.2,0.8-1.9-0.3-1.6l-2.9,0.7
		c-0.6,0.1-1.2,0.2-1.7,0.5l-3-2.2c0.2-0.1,0.5-0.1,0.7-0.2c0.8-0.2,1.7-0.4,2.5-0.6c1-0.2,0.8-1.9-0.3-1.6l-2.9,0.7
		c-0.6,0.1-1.2,0.2-1.7,0.5l-11.3-8.2v-4.6l12-7.6c0.2,0.1,0.5,0.2,0.7,0.4c0.4,0.2,0.8,0.4,1.3,0.6c0.9,0.4,1.9,0.7,2.8,1.1
		c0.4,0.1,0.9-0.2,1-0.6c0.1-0.5-0.2-0.8-0.6-1c-0.8-0.3-1.5-0.5-2.3-0.9c-0.3-0.1-0.7-0.3-1-0.4c-0.1,0-0.2-0.1-0.3-0.1l3.2-2
		c0.2,0.1,0.5,0.2,0.7,0.4c0.4,0.2,0.8,0.4,1.3,0.6c0.9,0.4,1.9,0.7,2.8,1.1c0.4,0.1,0.9-0.2,1-0.6C65,31.7,64.7,31.3,64.3,31.2z"/>
	<g>
		<path class="st1" d="M62.2,8.1h-5.9c1.2-1.2,2.4-2.4,3.7-3.6c0.4-0.4-0.2-1-0.6-0.6c-1.1,1.1-2.3,2.2-3.4,3.4
			c0.1-1.6,0.1-3.3,0.1-4.9c0-1.1-1.7-1.1-1.7,0c0,1.8,0,3.6-0.1,5.3c-1-1.2-2-2.4-3-3.6c-0.3-0.4-0.9,0.2-0.6,0.6
			c1,1.1,2,2.3,2.9,3.5h-5.8c-1.1,0-1.1,1.7,0,1.7h5.6c-1.5,1.5-3,2.9-4.5,4.4c-0.4,0.4,0.2,1,0.6,0.6c1.5-1.5,3.1-3,4.6-4.5
			c-0.2,2.1-0.4,4.3-0.8,6.4c-0.2,1,1.4,1.5,1.6,0.4c0.3-2.1,0.6-4.2,0.8-6.3c1,1.3,2,2.6,3,3.9c0.3,0.4,1,0,0.7-0.4
			c-1.1-1.5-2.3-3-3.5-4.5h6.2C63.3,9.8,63.3,8.1,62.2,8.1z"/>
		<path class="st2" d="M79.5,46.5h-4.8c1-1,2-2,3-2.9c0.3-0.3-0.2-0.8-0.5-0.5c-0.9,0.9-1.8,1.8-2.8,2.7c0.1-1.3,0.1-2.7,0.1-4
			c0-0.9-1.4-0.9-1.3,0c0,1.4,0,2.9-0.1,4.3c-0.8-1-1.6-2-2.5-2.9c-0.3-0.3-0.8,0.1-0.5,0.5c0.8,0.9,1.6,1.9,2.4,2.8h-4.7
			c-0.9,0-0.9,1.3,0,1.3h4.6c-1.2,1.2-2.4,2.4-3.6,3.6c-0.3,0.3,0.2,0.8,0.5,0.5c1.2-1.2,2.5-2.4,3.7-3.7c-0.1,1.7-0.3,3.5-0.6,5.2
			c-0.1,0.8,1.2,1.2,1.3,0.4c0.3-1.7,0.5-3.4,0.6-5.1c0.8,1,1.6,2.1,2.4,3.2c0.3,0.3,0.8,0,0.6-0.3c-0.9-1.2-1.9-2.5-2.8-3.7h5
			C80.4,47.9,80.4,46.5,79.5,46.5z"/>
		<path class="st2" d="M8.3,42.9H5c0.7-0.7,1.4-1.3,2-2c0.2-0.2-0.1-0.5-0.3-0.3c-0.6,0.6-1.3,1.2-1.9,1.9c0-0.9,0.1-1.8,0-2.7
			c0-0.6-0.9-0.6-0.9,0c0,1,0,2,0,3c-0.6-0.7-1.1-1.3-1.7-2C2,40.5,1.7,40.8,1.9,41c0.5,0.6,1.1,1.3,1.6,1.9H0.3
			c-0.6,0-0.6,0.9,0,0.9h3.1c-0.8,0.8-1.7,1.6-2.5,2.4c-0.2,0.2,0.1,0.5,0.3,0.3c0.9-0.8,1.7-1.7,2.6-2.5c-0.1,1.2-0.2,2.4-0.4,3.5
			c-0.1,0.6,0.8,0.8,0.9,0.2c0.2-1.2,0.3-2.3,0.4-3.5c0.6,0.7,1.1,1.4,1.7,2.2c0.2,0.2,0.6,0,0.4-0.2c-0.6-0.8-1.3-1.7-1.9-2.5h3.4
			C8.9,43.9,8.9,42.9,8.3,42.9z"/>
		<path class="st1" d="M4.3,22.1c-1.6,0-1.6,2.5,0,2.5C5.9,24.6,5.9,22.1,4.3,22.1z"/>
		<path class="st1" d="M57.6,69.2c-2.1,0-2.1,3.3,0,3.3C59.7,72.5,59.7,69.2,57.6,69.2z"/>
		<path class="st1" d="M64.2,40.7c-1.6,0-1.6,2.5,0,2.5C65.8,43.2,65.8,40.7,64.2,40.7z"/>
		<path class="st1" d="M73.7,75.1c-2.1,0-2.1,3.3,0,3.3C75.8,78.4,75.8,75.1,73.7,75.1z"/>
		<path class="st1" d="M24.3,14.5c-2.1,0-2.1,3.3,0,3.3C26.4,17.8,26.4,14.5,24.3,14.5z"/>
		<path class="st1" d="M22.7,75.1c-2.1,0-2.1,3.3,0,3.3C24.8,78.4,24.8,75.1,22.7,75.1z"/>
	</g>
</g>
</svg>
