<?xml version="1.0" encoding="utf-8"?>
<!-- Generator: Adobe Illustrator 27.6.1, SVG Export Plug-In . SVG Version: 6.00 Build 0)  -->
<svg version="1.1" id="Layer_1" xmlns="http://www.w3.org/2000/svg" xmlns:xlink="http://www.w3.org/1999/xlink" x="0px" y="0px"
	 viewBox="0 0 80 80" style="enable-background:new 0 0 80 80;" xml:space="preserve">
<style type="text/css">
	.st0{fill:#FFDC45;}
	.st1{fill:#0097A9;}
	.st2{fill:#9BDBE2;}
	.st3{fill:#FFFFFF;}
</style>
<g>
	<g>
		<polygon class="st0" points="31.5,37.5 46.8,35 37.8,54.8 51.1,53 28.1,79.5 35.2,59.7 24.9,62 		"/>
		<g>
			<path class="st1" d="M75.7,32.7c-0.2,1.1-0.6,2.2-1.1,3.2c-1.9,3.1-5.3,5.1-8.9,5.7c-3.6,0.7-7.6,1.1-11.1,0.2
				c-3.2,3.9-8.2,6.3-13.3,6.4c-5.1,0.1-10.1-2.1-13.5-5.9c-4.5,1.3-9.3,1.8-14,1.4c-3.2-0.3-6.7-1.1-8.5-3.8c-0.7-1-1-2.2-1-3.4
				c-0.1-2.1,0.7-4.3,2.2-5.8c2.3-2.4,5.7-3.5,9.1-3.6c3.3-0.1,6.6,0.4,9.8,1.2c-1.7-1.5-3.2-3.3-3.6-5.5c-0.4-2.2,0.4-4.7,2.3-5.8
				c1.9-1.1,4.5-0.5,6.2,0.8c1.7,1.4,2.7,3.5,3.4,5.6c-0.4-4.3,0.6-9,2.3-12.9c1.7-4,4.8-7.4,8.8-9c4-1.6,8.9-1.3,12.3,1.3
				c3.4,2.5,5,6.9,4.9,11.1c-0.2,4.2-2.1,8.2-4.7,11.5c2.7-1.2,5.5-2,8.5-2.3c3-0.3,6.2,0.5,8.2,2.6C75.5,27.6,76.1,30.2,75.7,32.7z
				"/>
			<path class="st2" d="M75.7,32.7c-0.2,1.1-0.6,2.2-1.1,3.2c-1.9,3.1-5.3,5.1-8.9,5.7c-3.6,0.7-7.6,1.1-11.1,0.2
				c-3.2,3.9-8.2,6.3-13.3,6.4c-5.1,0.1-10.1-2.1-13.5-5.9c-4.5,1.3-9.3,1.8-14,1.4c-3.2-0.3-6.7-1.1-8.5-3.8c-0.7-1-1-2.2-1-3.4
				c2,2.9,5.5,4.7,9.1,5.3c4.2,0.6,8.5-0.3,12.7-1.1c-1.2-1.4-1.7-3.6-1.5-5.4c3.1,5.5,9.3,9,15.7,9c6.3,0,12.6-3.7,15.6-9.2
				c-0.1,1.6-0.6,3.2-1.3,4.7c4.5,0.3,9,0.7,13.3-0.7C71.1,37.9,74.2,35.7,75.7,32.7z"/>
			<g>
				<path class="st3" d="M46.8,4.7c-0.3-0.5-0.8-0.6-1.3-0.3c-3.8,1.9-6.7,5.6-7.5,9.8c-0.1,0.5,0.1,1,0.7,1.1
					c0.5,0.1,1-0.2,1.1-0.7c0.7-3.8,3.2-7,6.7-8.7C46.9,5.8,47,5.1,46.8,4.7z"/>
				<path class="st3" d="M25.4,21.3c0.1-0.2,0.2-0.3,0.3-0.4c0,0-0.1,0.1-0.1,0.1c0.2-0.2,0.3-0.4,0.3-0.6c0-0.2-0.1-0.5-0.3-0.7
					c-0.2-0.2-0.4-0.3-0.7-0.3c-0.2,0-0.5,0.1-0.7,0.3c-0.4,0.5-0.7,1.1-0.8,1.8c0,0.3-0.1,0.6,0,0.8c0,0.2,0,0.4,0.1,0.6
					c0.1,0.2,0.1,0.4,0.2,0.6c0.1,0.2,0.4,0.4,0.6,0.4c0.2,0.1,0.5,0,0.7-0.1c0.2-0.1,0.4-0.3,0.4-0.6l0-0.2c0-0.1,0-0.2-0.1-0.3
					c0,0,0,0,0,0c-0.1-0.2-0.1-0.3-0.1-0.5c0-0.2,0-0.3,0-0.5C25.3,21.6,25.3,21.4,25.4,21.3z"/>
				<path class="st3" d="M16.7,29.2c-2.8-0.3-5.6,0.4-7.9,1.9c-0.4,0.3-0.6,0.8-0.3,1.3c0.2,0.4,0.9,0.6,1.3,0.3
					c2.1-1.4,4.5-1.9,7-1.7c0.5,0.1,0.9-0.5,0.9-0.9C17.6,29.6,17.2,29.3,16.7,29.2z"/>
			</g>
		</g>
	</g>
	<g>
		<g>
			<path class="st1" d="M9.5,65.9c-0.6-0.2-1-0.6-1.1-1.1c-0.7-2.5,4-7.6,4-7.6s0,0.4,0.1,1.1C12.6,60.8,12.6,67,9.5,65.9z"/>
			<path class="st2" d="M9.5,65.9c-0.6-0.2-1-0.6-1.1-1.1c0.2,0.2,0.5,0.4,0.7,0.4c0.6,0.1,1.1-0.2,1.5-0.6c0.4-0.4,0.6-0.9,0.8-1.5
				c0.6-1.6,0.8-3.3,1-5C12.6,60.8,12.6,67,9.5,65.9z"/>
		</g>
		<g>
			<path class="st1" d="M19.6,59.3c-0.5-0.2-0.8-0.5-0.9-0.9c-0.6-2.1,3.3-6.2,3.3-6.2s0,0.3,0.1,0.9C22.2,55.1,22.2,60.2,19.6,59.3
				z"/>
			<path class="st2" d="M19.6,59.3c-0.5-0.2-0.8-0.5-0.9-0.9c0.1,0.2,0.4,0.3,0.6,0.4c0.5,0.1,0.9-0.1,1.2-0.5
				c0.3-0.3,0.5-0.8,0.7-1.2c0.5-1.3,0.7-2.7,0.8-4.1C22.2,55.1,22.2,60.2,19.6,59.3z"/>
		</g>
		<g>
			<path class="st1" d="M40.6,74.2c-0.4-0.1-0.6-0.4-0.7-0.7c-0.5-1.6,2.6-5,2.6-5s0,0.3,0.1,0.7C42.7,70.9,42.7,75,40.6,74.2z"/>
			<path class="st2" d="M40.6,74.2c-0.4-0.1-0.6-0.4-0.7-0.7c0.1,0.2,0.3,0.3,0.5,0.3c0.4,0.1,0.7-0.1,1-0.4c0.3-0.3,0.4-0.6,0.5-1
				c0.4-1,0.5-2.1,0.6-3.2C42.7,70.9,42.7,75,40.6,74.2z"/>
		</g>
		<g>
			<path class="st1" d="M64.1,59.8c-0.6-0.2-0.9-0.6-1.1-1c-0.7-2.4,3.7-7.2,3.7-7.2s0,0.4,0.1,1C66.9,55,67,60.9,64.1,59.8z"/>
			<path class="st2" d="M64.1,59.8c-0.6-0.2-0.9-0.6-1.1-1c0.2,0.2,0.4,0.4,0.7,0.4c0.5,0.1,1.1-0.2,1.4-0.5
				c0.4-0.4,0.6-0.9,0.8-1.4c0.5-1.5,0.8-3.1,0.9-4.7C66.9,55,67,60.9,64.1,59.8z"/>
		</g>
		<g>
			<path class="st1" d="M56.4,53.7c-0.4-0.1-0.6-0.4-0.7-0.7c-0.5-1.6,2.6-5,2.6-5s0,0.3,0.1,0.7C58.4,50.3,58.4,54.4,56.4,53.7z"/>
			<path class="st2" d="M56.4,53.7c-0.4-0.1-0.6-0.4-0.7-0.7c0.1,0.2,0.3,0.3,0.5,0.3c0.4,0.1,0.7-0.1,1-0.4c0.3-0.3,0.4-0.6,0.5-1
				c0.4-1,0.5-2.1,0.6-3.2C58.4,50.3,58.4,54.4,56.4,53.7z"/>
		</g>
	</g>
</g>
</svg>
